%TF.GenerationSoftware,KiCad,Pcbnew,(6.0.0)*%
%TF.CreationDate,2022-01-09T16:55:07-05:00*%
%TF.ProjectId,Saturation_Tester,53617475-7261-4746-996f-6e5f54657374,rev?*%
%TF.SameCoordinates,Original*%
%TF.FileFunction,Soldermask,Top*%
%TF.FilePolarity,Negative*%
%FSLAX46Y46*%
G04 Gerber Fmt 4.6, Leading zero omitted, Abs format (unit mm)*
G04 Created by KiCad (PCBNEW (6.0.0)) date 2022-01-09 16:55:07*
%MOMM*%
%LPD*%
G01*
G04 APERTURE LIST*
G04 Aperture macros list*
%AMRoundRect*
0 Rectangle with rounded corners*
0 $1 Rounding radius*
0 $2 $3 $4 $5 $6 $7 $8 $9 X,Y pos of 4 corners*
0 Add a 4 corners polygon primitive as box body*
4,1,4,$2,$3,$4,$5,$6,$7,$8,$9,$2,$3,0*
0 Add four circle primitives for the rounded corners*
1,1,$1+$1,$2,$3*
1,1,$1+$1,$4,$5*
1,1,$1+$1,$6,$7*
1,1,$1+$1,$8,$9*
0 Add four rect primitives between the rounded corners*
20,1,$1+$1,$2,$3,$4,$5,0*
20,1,$1+$1,$4,$5,$6,$7,0*
20,1,$1+$1,$6,$7,$8,$9,0*
20,1,$1+$1,$8,$9,$2,$3,0*%
G04 Aperture macros list end*
%ADD10C,0.010000*%
%ADD11R,1.600000X1.600000*%
%ADD12C,1.600000*%
%ADD13C,3.556000*%
%ADD14C,3.810000*%
%ADD15RoundRect,0.249998X0.312502X0.625002X-0.312502X0.625002X-0.312502X-0.625002X0.312502X-0.625002X0*%
%ADD16RoundRect,0.250000X-0.475000X0.250000X-0.475000X-0.250000X0.475000X-0.250000X0.475000X0.250000X0*%
%ADD17R,2.500000X1.800000*%
%ADD18R,1.800000X2.500000*%
%ADD19RoundRect,0.249998X0.262502X0.450002X-0.262502X0.450002X-0.262502X-0.450002X0.262502X-0.450002X0*%
%ADD20R,3.500000X3.500000*%
%ADD21RoundRect,0.750000X-0.750000X-1.000000X0.750000X-1.000000X0.750000X1.000000X-0.750000X1.000000X0*%
%ADD22RoundRect,0.875000X-0.875000X-0.875000X0.875000X-0.875000X0.875000X0.875000X-0.875000X0.875000X0*%
%ADD23O,0.800000X0.800000*%
%ADD24R,0.450000X1.300000*%
%ADD25O,1.450000X2.000000*%
%ADD26O,1.150000X1.800000*%
%ADD27RoundRect,0.250000X-0.375000X-0.625000X0.375000X-0.625000X0.375000X0.625000X-0.375000X0.625000X0*%
%ADD28R,1.905000X2.000000*%
%ADD29O,1.905000X2.000000*%
%ADD30C,8.600000*%
%ADD31C,4.000000*%
%ADD32RoundRect,0.249999X-0.312501X-0.625001X0.312501X-0.625001X0.312501X0.625001X-0.312501X0.625001X0*%
%ADD33R,3.000000X3.000000*%
%ADD34C,3.000000*%
%ADD35RoundRect,0.250000X0.475000X-0.250000X0.475000X0.250000X-0.475000X0.250000X-0.475000X-0.250000X0*%
%ADD36R,2.450000X5.900000*%
%ADD37RoundRect,0.750000X-1.000000X0.750000X-1.000000X-0.750000X1.000000X-0.750000X1.000000X0.750000X0*%
%ADD38RoundRect,0.875000X-0.875000X0.875000X-0.875000X-0.875000X0.875000X-0.875000X0.875000X0.875000X0*%
%ADD39R,1.000000X0.750000*%
%ADD40RoundRect,0.250000X0.312500X0.625000X-0.312500X0.625000X-0.312500X-0.625000X0.312500X-0.625000X0*%
%ADD41RoundRect,0.250000X0.362500X1.425000X-0.362500X1.425000X-0.362500X-1.425000X0.362500X-1.425000X0*%
%ADD42R,2.200000X1.200000*%
%ADD43R,6.400000X5.800000*%
%ADD44R,0.900000X0.800000*%
%ADD45R,0.800000X0.900000*%
%ADD46RoundRect,0.250000X0.625000X-0.312500X0.625000X0.312500X-0.625000X0.312500X-0.625000X-0.312500X0*%
%ADD47RoundRect,0.250000X-0.312500X-0.625000X0.312500X-0.625000X0.312500X0.625000X-0.312500X0.625000X0*%
%ADD48RoundRect,0.250000X-0.250000X-0.475000X0.250000X-0.475000X0.250000X0.475000X-0.250000X0.475000X0*%
%ADD49RoundRect,0.250000X0.250000X0.475000X-0.250000X0.475000X-0.250000X-0.475000X0.250000X-0.475000X0*%
%ADD50RoundRect,0.250000X-0.625000X0.312500X-0.625000X-0.312500X0.625000X-0.312500X0.625000X0.312500X0*%
%ADD51RoundRect,0.150000X-0.725000X-0.150000X0.725000X-0.150000X0.725000X0.150000X-0.725000X0.150000X0*%
%ADD52RoundRect,0.150000X0.825000X0.150000X-0.825000X0.150000X-0.825000X-0.150000X0.825000X-0.150000X0*%
%ADD53C,1.800000*%
%ADD54RoundRect,0.150000X0.725000X0.150000X-0.725000X0.150000X-0.725000X-0.150000X0.725000X-0.150000X0*%
%ADD55C,2.000000*%
%ADD56RoundRect,0.250000X0.412500X0.650000X-0.412500X0.650000X-0.412500X-0.650000X0.412500X-0.650000X0*%
G04 APERTURE END LIST*
D10*
%TO.C,Q1*%
X132070000Y-86380000D02*
X132070000Y-81620000D01*
X132070000Y-81620000D02*
X132495000Y-81620000D01*
X132495000Y-81620000D02*
X132495000Y-81125000D01*
X132495000Y-81125000D02*
X133600000Y-81125000D01*
X133600000Y-81125000D02*
X133600000Y-81620000D01*
X133600000Y-81620000D02*
X136800000Y-81620000D01*
X136800000Y-81620000D02*
X136800000Y-82570000D01*
X136800000Y-82570000D02*
X136325000Y-82570000D01*
X136325000Y-82570000D02*
X136325000Y-85430000D01*
X136325000Y-85430000D02*
X136800000Y-85430000D01*
X136800000Y-85430000D02*
X136800000Y-86380000D01*
X136800000Y-86380000D02*
X133600000Y-86380000D01*
X133600000Y-86380000D02*
X133600000Y-86875000D01*
X133600000Y-86875000D02*
X132495000Y-86875000D01*
X132495000Y-86875000D02*
X132495000Y-86380000D01*
X132495000Y-86380000D02*
X132070000Y-86380000D01*
G36*
X133600000Y-81620000D02*
G01*
X136800000Y-81620000D01*
X136800000Y-82570000D01*
X136325000Y-82570000D01*
X136325000Y-85430000D01*
X136800000Y-85430000D01*
X136800000Y-86380000D01*
X133600000Y-86380000D01*
X133600000Y-86875000D01*
X132495000Y-86875000D01*
X132495000Y-86380000D01*
X132070000Y-86380000D01*
X132070000Y-81620000D01*
X132495000Y-81620000D01*
X132495000Y-81125000D01*
X133600000Y-81125000D01*
X133600000Y-81620000D01*
G37*
X133600000Y-81620000D02*
X136800000Y-81620000D01*
X136800000Y-82570000D01*
X136325000Y-82570000D01*
X136325000Y-85430000D01*
X136800000Y-85430000D01*
X136800000Y-86380000D01*
X133600000Y-86380000D01*
X133600000Y-86875000D01*
X132495000Y-86875000D01*
X132495000Y-86380000D01*
X132070000Y-86380000D01*
X132070000Y-81620000D01*
X132495000Y-81620000D01*
X132495000Y-81125000D01*
X133600000Y-81125000D01*
X133600000Y-81620000D01*
%TD*%
D11*
%TO.C,C24*%
X89347349Y-75000000D03*
D12*
X94347349Y-75000000D03*
%TD*%
D11*
%TO.C,C23*%
X83847349Y-66750000D03*
D12*
X88847349Y-66750000D03*
%TD*%
D11*
%TO.C,C22*%
X94347349Y-66500000D03*
D12*
X99347349Y-66500000D03*
%TD*%
D11*
%TO.C,C21*%
X103597349Y-66500000D03*
D12*
X108597349Y-66500000D03*
%TD*%
D11*
%TO.C,C20*%
X98847349Y-75000000D03*
D12*
X103847349Y-75000000D03*
%TD*%
%TO.C,C19*%
X84597349Y-75250000D03*
D11*
X79597349Y-75250000D03*
%TD*%
%TO.C,C2*%
X108250000Y-74750000D03*
D12*
X113250000Y-74750000D03*
%TD*%
D11*
%TO.C,C1*%
X113097349Y-66500000D03*
D12*
X118097349Y-66500000D03*
%TD*%
D13*
%TO.C,J2*%
X78175000Y-86125000D03*
D14*
X75000000Y-89300000D03*
X81350000Y-82950000D03*
X75000000Y-82950000D03*
X81350000Y-89300000D03*
%TD*%
D13*
%TO.C,J3*%
X78560362Y-104250000D03*
D14*
X81735362Y-107425000D03*
X75385362Y-107425000D03*
X81735362Y-101075000D03*
X75385362Y-101075000D03*
%TD*%
D15*
%TO.C,R6*%
X87862500Y-86400000D03*
X84937500Y-86400000D03*
%TD*%
D13*
%TO.C,J5*%
X155500000Y-104000000D03*
D14*
X158202227Y-107585976D03*
X151914024Y-106702227D03*
X159085976Y-101297773D03*
X152797773Y-100414024D03*
%TD*%
D13*
%TO.C,J4*%
X155325000Y-88000000D03*
D14*
X158027227Y-84414024D03*
X152622773Y-91585976D03*
X158910976Y-90702227D03*
X151739024Y-85297773D03*
%TD*%
D11*
%TO.C,C4*%
X95000000Y-127000000D03*
D12*
X97500000Y-127000000D03*
%TD*%
D16*
%TO.C,C5*%
X90450000Y-124100000D03*
X90450000Y-126000000D03*
%TD*%
D17*
%TO.C,D1*%
X98500000Y-119500000D03*
X94500000Y-119500000D03*
%TD*%
D18*
%TO.C,D2*%
X85450000Y-124550000D03*
X85450000Y-128550000D03*
%TD*%
D19*
%TO.C,FB1*%
X90325000Y-119500000D03*
X88500000Y-119500000D03*
%TD*%
D20*
%TO.C,J8*%
X83500000Y-118000000D03*
D21*
X77500000Y-118000000D03*
D22*
X80500000Y-122700000D03*
%TD*%
D23*
%TO.C,J9*%
X83625000Y-137750000D03*
X88625000Y-137750000D03*
D24*
X84825000Y-136650000D03*
X85475000Y-136650000D03*
X86125000Y-136650000D03*
X86775000Y-136650000D03*
X87425000Y-136650000D03*
D25*
X82400000Y-136700000D03*
D26*
X82250000Y-140500000D03*
X90000000Y-140500000D03*
D25*
X89850000Y-136700000D03*
%TD*%
D11*
%TO.C,C6*%
X102000000Y-127000000D03*
D12*
X104500000Y-127000000D03*
%TD*%
D27*
%TO.C,D3*%
X77700000Y-129000000D03*
X80500000Y-129000000D03*
%TD*%
D15*
%TO.C,R13*%
X75425000Y-129000000D03*
X72500000Y-129000000D03*
%TD*%
D28*
%TO.C,U5*%
X92420000Y-115000000D03*
D29*
X94960000Y-115000000D03*
X97500000Y-115000000D03*
%TD*%
D11*
%TO.C,C9*%
X115500000Y-127000000D03*
D12*
X110500000Y-127000000D03*
%TD*%
D30*
%TO.C,H1*%
X150000000Y-57500000D03*
%TD*%
D31*
%TO.C,H2*%
X75000000Y-137500000D03*
%TD*%
%TO.C,H4*%
X150000000Y-137500000D03*
%TD*%
%TO.C,H3*%
X75000000Y-57500000D03*
%TD*%
D32*
%TO.C,R11*%
X140037500Y-81000000D03*
X142962500Y-81000000D03*
%TD*%
D33*
%TO.C,J11*%
X95500000Y-136500000D03*
D34*
X100580000Y-136500000D03*
X105660000Y-136500000D03*
%TD*%
D35*
%TO.C,C10*%
X112000000Y-118900000D03*
X112000000Y-117000000D03*
%TD*%
D36*
%TO.C,L1*%
X108550000Y-118500000D03*
X103000000Y-118500000D03*
%TD*%
D20*
%TO.C,J6*%
X133000000Y-64500000D03*
D37*
X133000000Y-58500000D03*
D38*
X128300000Y-61500000D03*
%TD*%
D13*
%TO.C,J10*%
X152500000Y-72500000D03*
D14*
X148611435Y-70254936D03*
X150254936Y-76388565D03*
X154745064Y-68611435D03*
X156388565Y-74745064D03*
%TD*%
D39*
%TO.C,Q1*%
X130705000Y-82095000D03*
X130705000Y-83365000D03*
X130705000Y-84635000D03*
X130705000Y-85905000D03*
%TD*%
D40*
%TO.C,R22*%
X88750000Y-104000000D03*
X85825000Y-104000000D03*
%TD*%
D41*
%TO.C,R24*%
X144462500Y-84000000D03*
X138537500Y-84000000D03*
%TD*%
D42*
%TO.C,Q2*%
X127025000Y-70245000D03*
X127025000Y-72525000D03*
X127025000Y-74805000D03*
D43*
X133325000Y-72525000D03*
%TD*%
D44*
%TO.C,Q3*%
X113025000Y-102815000D03*
X113025000Y-100915000D03*
X111025000Y-101865000D03*
%TD*%
D45*
%TO.C,Q4*%
X122000000Y-86500000D03*
X123900000Y-86500000D03*
X122950000Y-84500000D03*
%TD*%
%TO.C,Q5*%
X122000000Y-83000000D03*
X123900000Y-83000000D03*
X122950000Y-81000000D03*
%TD*%
%TO.C,Q6*%
X122050000Y-79000000D03*
X123950000Y-79000000D03*
X123000000Y-77000000D03*
%TD*%
%TO.C,Q7*%
X122050000Y-75000000D03*
X123950000Y-75000000D03*
X123000000Y-73000000D03*
%TD*%
%TO.C,Q8*%
X122050000Y-71000000D03*
X123950000Y-71000000D03*
X123000000Y-69000000D03*
%TD*%
D46*
%TO.C,R5*%
X126962500Y-95425000D03*
X126962500Y-92500000D03*
%TD*%
D47*
%TO.C,R7*%
X118880000Y-90000000D03*
X121805000Y-90000000D03*
%TD*%
%TO.C,R9*%
X112037500Y-92500000D03*
X114962500Y-92500000D03*
%TD*%
%TO.C,R12*%
X112000000Y-95000000D03*
X114925000Y-95000000D03*
%TD*%
D48*
%TO.C,C8*%
X124562500Y-90000000D03*
X126462500Y-90000000D03*
%TD*%
D49*
%TO.C,C11*%
X106550000Y-80750000D03*
X108450000Y-80750000D03*
%TD*%
D50*
%TO.C,R18*%
X142500000Y-102000000D03*
X142500000Y-104925000D03*
%TD*%
D47*
%TO.C,R19*%
X142500000Y-94500000D03*
X145425000Y-94500000D03*
%TD*%
D40*
%TO.C,R21*%
X145425000Y-97000000D03*
X142500000Y-97000000D03*
%TD*%
%TO.C,R20*%
X145462500Y-99500000D03*
X142537500Y-99500000D03*
%TD*%
D51*
%TO.C,U3*%
X117925000Y-100595000D03*
X117925000Y-101865000D03*
X117925000Y-103135000D03*
X117925000Y-104405000D03*
X123075000Y-104405000D03*
X123075000Y-103135000D03*
X123075000Y-101865000D03*
X123075000Y-100595000D03*
%TD*%
D49*
%TO.C,C13*%
X103900000Y-105000000D03*
X102000000Y-105000000D03*
%TD*%
D13*
%TO.C,J7*%
X152000000Y-120000000D03*
D14*
X148111435Y-122245064D03*
X155888565Y-117754936D03*
X154245064Y-123888565D03*
X149754936Y-116111435D03*
%TD*%
D52*
%TO.C,U6*%
X108500000Y-103270000D03*
X108500000Y-102000000D03*
X108500000Y-100730000D03*
X108500000Y-99460000D03*
X103550000Y-99460000D03*
X103550000Y-100730000D03*
X103550000Y-102000000D03*
X103550000Y-103270000D03*
%TD*%
D49*
%TO.C,C7*%
X113400000Y-107500000D03*
X111500000Y-107500000D03*
%TD*%
D17*
%TO.C,D4*%
X130500000Y-78500000D03*
X134500000Y-78500000D03*
%TD*%
%TO.C,D5*%
X139500000Y-71000000D03*
X143500000Y-71000000D03*
%TD*%
D40*
%TO.C,R15*%
X113962500Y-105000000D03*
X111037500Y-105000000D03*
%TD*%
D47*
%TO.C,R16*%
X111037500Y-99000000D03*
X113962500Y-99000000D03*
%TD*%
%TO.C,R17*%
X121575000Y-66500000D03*
X124500000Y-66500000D03*
%TD*%
D31*
%TO.C,RV1*%
X134000000Y-114500000D03*
X125200000Y-114500000D03*
D53*
X127100000Y-107500000D03*
X129600000Y-107500000D03*
X132100000Y-107500000D03*
%TD*%
D51*
%TO.C,U4*%
X117887500Y-92595000D03*
X117887500Y-93865000D03*
X117887500Y-95135000D03*
X117887500Y-96405000D03*
X123037500Y-96405000D03*
X123037500Y-95135000D03*
X123037500Y-93865000D03*
X123037500Y-92595000D03*
%TD*%
D54*
%TO.C,U2*%
X139537500Y-100905000D03*
X139537500Y-99635000D03*
X139537500Y-98365000D03*
X139537500Y-97095000D03*
X134387500Y-97095000D03*
X134387500Y-98365000D03*
X134387500Y-99635000D03*
X134387500Y-100905000D03*
%TD*%
D47*
%TO.C,R8*%
X113537500Y-90000000D03*
X116462500Y-90000000D03*
%TD*%
D49*
%TO.C,C12*%
X131950000Y-101000000D03*
X130050000Y-101000000D03*
%TD*%
D11*
%TO.C,C17*%
X102000000Y-60750000D03*
D12*
X102000000Y-55750000D03*
%TD*%
D46*
%TO.C,R23*%
X101500000Y-81250000D03*
X101500000Y-84175000D03*
%TD*%
D11*
%TO.C,C16*%
X120250000Y-60652651D03*
D12*
X120250000Y-55652651D03*
%TD*%
D11*
%TO.C,C18*%
X111000000Y-60652651D03*
D12*
X111000000Y-55652651D03*
%TD*%
D55*
%TO.C,SW1*%
X136000000Y-126500000D03*
X123500000Y-126500000D03*
X136000000Y-131500000D03*
X123500000Y-131500000D03*
%TD*%
D56*
%TO.C,C15*%
X101062500Y-99500000D03*
X97937500Y-99500000D03*
%TD*%
D11*
%TO.C,C14*%
X91500000Y-60902651D03*
D12*
X91500000Y-55902651D03*
%TD*%
M02*
