M48
; DRILL file {KiCad (6.0.0)} date Sun Jan  9 16:55:10 2022
; FORMAT={-:-/ absolute / inch / decimal}
; #@! TF.CreationDate,2022-01-09T16:55:10-05:00
; #@! TF.GenerationSoftware,Kicad,Pcbnew,(6.0.0)
; #@! TF.FileFunction,Plated,1,2,PTH
FMAT,2
INCH
; #@! TA.AperFunction,Plated,PTH,ViaDrill
T1C0.0157
; #@! TA.AperFunction,Plated,PTH,ComponentDrill
T2C0.0217
; #@! TA.AperFunction,Plated,PTH,ComponentDrill
T3C0.0315
; #@! TA.AperFunction,Plated,PTH,ComponentDrill
T4C0.0335
; #@! TA.AperFunction,Plated,PTH,ComponentDrill
T5C0.0394
; #@! TA.AperFunction,Plated,PTH,ComponentDrill
T6C0.0433
; #@! TA.AperFunction,Plated,PTH,ComponentDrill
T7C0.0500
; #@! TA.AperFunction,Plated,PTH,ComponentDrill
T8C0.0512
; #@! TA.AperFunction,Plated,PTH,ComponentDrill
T9C0.0598
; #@! TA.AperFunction,Plated,PTH,ComponentDrill
T10C0.0600
; #@! TA.AperFunction,Plated,PTH,ComponentDrill
T11C0.1693
%
G90
G05
T1
X2.815Y-2.4508
X2.815Y-2.5508
X2.815Y-2.6508
X2.815Y-2.7508
X2.815Y-2.8508
X2.815Y-2.9508
X2.815Y-3.0508
X2.815Y-3.1508
X2.815Y-3.2508
X2.815Y-3.3508
X2.815Y-3.4508
X2.815Y-3.5508
X2.815Y-3.6508
X2.815Y-3.7508
X2.815Y-3.8508
X2.815Y-3.9508
X2.815Y-4.0508
X2.815Y-4.1508
X2.815Y-4.2508
X2.815Y-4.3508
X2.815Y-4.4508
X2.815Y-4.5508
X2.815Y-4.6508
X2.815Y-4.7508
X2.815Y-4.8508
X2.815Y-4.9508
X2.815Y-5.0508
X2.815Y-5.0787
X2.815Y-5.1508
X2.815Y-5.2508
X2.815Y-5.3508
X3.0823Y-5.561
X3.1004Y-2.5591
X3.1118Y-2.1063
X3.1823Y-5.561
X3.2118Y-2.1063
X3.248Y-2.3031
X3.248Y-2.4213
X3.3118Y-2.1063
X3.3366Y-3.4941
X3.3465Y-3.3169
X3.3823Y-5.561
X3.4118Y-2.1063
X3.4252Y-3.9961
X3.4252Y-4.2028
X3.4547Y-5.315
X3.4823Y-5.561
X3.4941Y-3.4941
X3.5118Y-2.1063
X3.5531Y-3.3465
X3.561Y-5.002
X3.5925Y-2.5394
X3.6118Y-2.1063
X3.6516Y-3.4646
X3.6614Y-4.2913
X3.6811Y-4.124
X3.6823Y-5.561
X3.7106Y-3.3465
X3.7118Y-2.1063
X3.7823Y-5.561
X3.8118Y-2.1063
X3.8484Y-4.1142
X3.8583Y-3.5335
X3.8681Y-3.2677
X3.878Y-3.8583
X3.8823Y-5.561
X3.9118Y-2.1063
X3.9469Y-4.1339
X3.9823Y-5.561
X4.0118Y-2.1063
X4.0354Y-3.376
X4.0453Y-4.2815
X4.0551Y-3.5433
X4.0823Y-5.561
X4.1118Y-2.1063
X4.1142Y-3.8386
X4.1339Y-4.1339
X4.1339Y-4.2717
X4.1634Y-4.5669
X4.1634Y-4.7638
X4.1823Y-5.561
X4.2118Y-2.1063
X4.2126Y-4.1437
X4.2323Y-3.5433
X4.2323Y-5.2264
X4.2421Y-4.4488
X4.2421Y-4.9705
X4.2717Y-4.0945
X4.2823Y-5.561
X4.2913Y-4.1732
X4.3118Y-2.1063
X4.3209Y-3.3465
X4.3504Y-4.2323
X4.3701Y-3.7598
X4.3823Y-5.561
X4.3858Y-3.1181
X4.3898Y-2.5689
X4.3898Y-4.0551
X4.3996Y-3.1988
X4.4094Y-4.5669
X4.4118Y-2.1063
X4.4685Y-5.374
X4.4882Y-3.9764
X4.4882Y-4.5374
X4.4996Y-2.1063
X4.5472Y-4.1142
X4.5669Y-4.4094
X4.5866Y-4.7736
X4.5996Y-2.1063
X4.626Y-3.1988
X4.6457Y-4.3504
X4.6555Y-3.3465
X4.6752Y-3.0807
X4.6996Y-2.1063
X4.7244Y-2.9724
X4.7244Y-3.2874
X4.7441Y-3.937
X4.7835Y-3.7008
X4.7933Y-2.7264
X4.7996Y-2.1063
X4.8228Y-3.9173
X4.8327Y-4.1929
X4.8425Y-2.9134
X4.8425Y-3.3661
X4.8425Y-3.4843
X4.8996Y-2.1063
X4.9016Y-3.1496
X4.9803Y-3.9567
X4.9996Y-2.1063
X5.0Y-3.0118
X5.0Y-3.0709
X5.0197Y-3.5433
X5.0591Y-4.1142
X5.0787Y-3.3268
X5.0984Y-3.2087
X5.0984Y-3.2677
X5.0996Y-2.1063
X5.1181Y-3.5039
X5.1181Y-3.7402
X5.1996Y-2.1063
X5.2165Y-3.6417
X5.2756Y-3.5827
X5.2996Y-2.1063
X5.315Y-3.5039
X5.315Y-3.7402
X5.3937Y-3.6811
X5.3996Y-2.1063
X5.4528Y-3.622
X5.4996Y-2.1063
X5.5512Y-3.3268
X5.5748Y-3.4095
X5.5996Y-2.1063
X5.6996Y-2.1063
X5.7087Y-3.1496
X5.7677Y-3.248
X5.8071Y-4.252
X5.8858Y-3.1693
X6.0827Y-3.1496
X6.1024Y-4.7638
X6.1319Y-2.4508
X6.1516Y-4.4882
X6.1811Y-3.7008
X6.1811Y-3.8976
X6.1811Y-4.3701
X6.1909Y-5.0295
X6.2402Y-4.8031
X6.2598Y-3.1496
X6.2795Y-2.874
X6.2992Y-3.002
X6.2992Y-4.626
X6.3386Y-4.4291
X6.3583Y-3.248
X6.378Y-3.4449
X6.378Y-4.1732
X6.3976Y-3.622
X6.3976Y-3.7992
X6.3976Y-3.9764
T3
X3.1338Y-2.9626
X3.3011Y-2.628
X3.3306Y-2.9626
X3.4979Y-2.628
X3.5176Y-2.9528
X3.6024Y-2.2009
X3.6024Y-2.3977
X3.7145Y-2.6181
X3.7145Y-2.9528
X3.7402Y-5.0
X3.8386Y-5.0
X3.8916Y-2.9528
X3.9113Y-2.6181
X4.0157Y-2.1949
X4.0157Y-2.3917
X4.0157Y-5.0
X4.0786Y-2.6181
X4.0885Y-2.9528
X4.1142Y-5.0
X4.2618Y-2.9429
X4.2755Y-2.6181
X4.3504Y-5.0
X4.3701Y-2.191
X4.3701Y-2.3879
X4.4527Y-2.6181
X4.4587Y-2.9429
X4.5472Y-5.0
X4.6495Y-2.6181
X4.7343Y-2.191
X4.7343Y-2.3879
T5
X5.0039Y-4.2323
X5.1024Y-4.2323
X5.2008Y-4.2323
T6
X3.6386Y-4.5276
X3.7386Y-4.5276
X3.8386Y-4.5276
T7
X3.0778Y-3.3907
X3.0929Y-4.1043
X5.9843Y-4.7244
X6.0039Y-2.8543
X6.1152Y-3.4646
X6.122Y-4.0945
T8
X4.8622Y-4.9803
X4.8622Y-5.1772
X5.3543Y-4.9803
X5.3543Y-5.1772
T9
X3.7598Y-5.374
X3.9598Y-5.374
X4.1598Y-5.374
T10
X2.9528Y-3.2657
X2.9528Y-3.5157
X2.9679Y-3.9793
X2.9679Y-4.2293
X3.2028Y-3.2657
X3.2028Y-3.5157
X3.2179Y-3.9793
X3.2179Y-4.2293
X5.8312Y-4.8128
X5.8508Y-2.7659
X5.8959Y-4.5713
X5.9155Y-3.0074
X5.974Y-3.3582
X5.9809Y-4.2009
X6.0088Y-3.6057
X6.0157Y-3.9533
X6.0726Y-4.8775
X6.0923Y-2.7012
X6.1373Y-4.636
X6.157Y-2.9427
X6.2215Y-3.3234
X6.2284Y-4.2357
X6.2563Y-3.571
X6.2632Y-3.9881
T11
X5.9055Y-2.2638
T2
G00X3.2382Y-5.5187
M15
G01X3.2382Y-5.5443
M16
G05
G00X3.5433Y-5.5187
M15
G01X3.5433Y-5.5443
M16
G05
T4
G00X3.2441Y-5.3711
M15
G01X3.2441Y-5.3927
M16
G05
G00X3.5374Y-5.3711
M15
G01X3.5374Y-5.3927
M16
G05
T5
G00X3.0512Y-4.6063
M15
G01X3.0512Y-4.685
M16
G05
G00X3.1299Y-4.8307
M15
G01X3.2087Y-4.8307
M16
G05
G00X3.2874Y-4.6063
M15
G01X3.2874Y-4.685
M16
G05
G00X5.0512Y-2.3819
M15
G01X5.0512Y-2.4606
M16
G05
G00X5.2756Y-2.3031
M15
G01X5.1969Y-2.3031
M16
G05
G00X5.2756Y-2.5394
M15
G01X5.1969Y-2.5394
M16
G05
T0
M30
